TITLE ""
FILE "DISC2Track34.mp3" MP3
  TRACK 01 AUDIO
    TITLE "DISC2Track34_01"
    INDEX 01 00:00:00
  TRACK 02 AUDIO
    TITLE "DISC2Track34_02"
    INDEX 01 00:01:70
  TRACK 03 AUDIO
    TITLE "DISC2Track34_03"
    INDEX 01 00:02:11
  TRACK 04 AUDIO
    TITLE "DISC2Track34_04"
    INDEX 01 00:05:27
  TRACK 05 AUDIO
    TITLE "DISC2Track34_05"
    INDEX 01 00:08:29
  TRACK 06 AUDIO
    TITLE "DISC2Track34_06"
    INDEX 01 00:11:06
  TRACK 07 AUDIO
    TITLE "DISC2Track34_07"
    INDEX 01 00:11:20
  TRACK 08 AUDIO
    TITLE "DISC2Track34_08"
    INDEX 01 00:14:20
  TRACK 09 AUDIO
    TITLE "DISC2Track34_09"
    INDEX 01 00:17:21
  TRACK 10 AUDIO
    TITLE "DISC2Track34_10"
    INDEX 01 00:19:66
  TRACK 11 AUDIO
    TITLE "DISC2Track34_11"
    INDEX 01 00:20:09
  TRACK 12 AUDIO
    TITLE "DISC2Track34_12"
    INDEX 01 00:22:61
  TRACK 13 AUDIO
    TITLE "DISC2Track34_13"
    INDEX 01 00:25:18
  TRACK 14 AUDIO
    TITLE "DISC2Track34_14"
    INDEX 01 00:27:13
  TRACK 15 AUDIO
    TITLE "DISC2Track34_15"
    INDEX 01 00:27:27
  TRACK 16 AUDIO
    TITLE "DISC2Track34_16"
    INDEX 01 00:31:36
  TRACK 17 AUDIO
    TITLE "DISC2Track34_17"
    INDEX 01 00:35:73
  TRACK 18 AUDIO
    TITLE "DISC2Track34_18"
    INDEX 01 00:39:73
  TRACK 19 AUDIO
    TITLE "DISC2Track34_19"
    INDEX 01 00:40:14
  TRACK 20 AUDIO
    TITLE "DISC2Track34_20"
    INDEX 01 00:43:51
  TRACK 21 AUDIO
    TITLE "DISC2Track34_21"
    INDEX 01 00:47:29
  TRACK 22 AUDIO
    TITLE "DISC2Track34_22"
    INDEX 01 00:50:55
  TRACK 23 AUDIO
    TITLE "DISC2Track34_23"
    INDEX 01 00:50:71
  TRACK 24 AUDIO
    TITLE "DISC2Track34_24"
    INDEX 01 00:54:53
  TRACK 25 AUDIO
    TITLE "DISC2Track34_25"
    INDEX 01 00:58:10
  TRACK 26 AUDIO
    TITLE "DISC2Track34_26"
    INDEX 01 01:01:14
  TRACK 27 AUDIO
    TITLE "DISC2Track34_27"
    INDEX 01 01:01:28
  TRACK 28 AUDIO
    TITLE "DISC2Track34_28"
    INDEX 01 01:04:65
  TRACK 29 AUDIO
    TITLE "DISC2Track34_29"
    INDEX 01 01:08:24
  TRACK 30 AUDIO
    TITLE "DISC2Track34_30"
    INDEX 01 01:11:36
  TRACK 31 AUDIO
    TITLE "DISC2Track34_31"
    INDEX 01 01:11:48
  TRACK 32 AUDIO
    TITLE "DISC2Track34_32"
    INDEX 01 01:14:67
  TRACK 33 AUDIO
    TITLE "DISC2Track34_33"
    INDEX 01 01:17:44
  TRACK 34 AUDIO
    TITLE "DISC2Track34_34"
    INDEX 01 01:19:75
  TRACK 35 AUDIO
    TITLE "DISC2Track34_35"
    INDEX 01 01:20:13
  TRACK 36 AUDIO
    TITLE "DISC2Track34_36"
    INDEX 01 01:23:47
  TRACK 37 AUDIO
    TITLE "DISC2Track34_37"
    INDEX 01 01:27:19
  TRACK 38 AUDIO
    TITLE "DISC2Track34_38"
    INDEX 01 01:30:31
  TRACK 39 AUDIO
    TITLE "DISC2Track34_39"
    INDEX 01 01:30:45
  TRACK 40 AUDIO
    TITLE "DISC2Track34_40"
    INDEX 01 01:33:53
  TRACK 41 AUDIO
    TITLE "DISC2Track34_41"
    INDEX 01 01:36:42
  TRACK 42 AUDIO
    TITLE "DISC2Track34_42"
    INDEX 01 01:39:03
